#!OML:ASF H:\Male1\Project 1\Capture day 1\Session 1\Male1.ASF
:FULLY-SPECIFIED
:DEGREES
488
root 47.8368 15.3518 0.363296 772.053 268.537 667.961
lowerback 7.29931 0.700347 -5.13547
upperback 4.91906 0.481251 -0.271568
thorax 0.959338 0.0586407 2.5688
lowerneck -13.0938 4.67668 8.43285
upperneck 14.7644 5.85717 -7.28251
head 7.14208 2.63844 -3.15819
rclavicle -3.42904e-015 -3.37934e-015
rhumerus -39.2312 6.60918 -90.2293
rradius 41.0842
rwrist -23.7501
rhand -20.9813 -0.879948
rfingers 7.12502
rthumb 5.39242 -30.7913
lclavicle -3.42904e-015 -3.37934e-015
lhumerus -26.9653 -5.92799 93.2462
lradius 28.6438
lwrist 3.23184
lhand -18.4376 22.2365
lfingers 7.12502
lthumb 7.84799 52.0708
rfemur -26.4502 8.27799 19.4925
rtibia 42.7423
rfoot -23.674 -21.5137
rtoes -23.9243
lfemur 2.68755 -18.0725 -29.2284
ltibia 17.4983
lfoot -22.6293 20.8964
ltoes -5.26345
489
root 47.7359 15.3481 0.36986 780.371 268.598 659.547
lowerback 7.46504 0.750037 -5.15538
upperback 4.93583 0.534478 -0.251271
thorax 0.880661 0.0853142 2.59662
lowerneck -13.1519 4.55903 8.30495
upperneck 14.6271 5.68846 -7.13443
head 7.08528 2.56376 -3.10541
rclavicle -1.54058e-015 -2.10712e-014
rhumerus -39.1189 6.44337 -89.9421
rradius 40.838
rwrist -23.3768
rhand -21.2338 -1.29053
rfingers 7.12502
rthumb 5.14863 -31.208
lclavicle -1.54058e-015 -2.10712e-014
lhumerus -26.71 -8.76316 94.2869
lradius 30.3039
lwrist 3.07774
lhand -18.1325 22.3936
lfingers 7.12502
lthumb 8.14248 52.2167
rfemur -27.0172 9.36572 19.0823
rtibia 41.8258
rfoot -23.5717 -21.0675
rtoes -23.6642
lfemur 3.84207 -17.7698 -29.4149
ltibia 16.2527
lfoot -22.2463 20.639
ltoes -5.38242
490
root 47.6276 15.3436 0.376925 797.04 268.542 642.799
lowerback 7.53964 0.758357 -5.2843
upperback 4.95536 0.532579 -0.260401
thorax 0.859847 0.0811674 2.65923
lowerneck -13.0543 4.43961 8.26381
upperneck 14.3872 5.52248 -7.07535
head 6.97419 2.49087 -3.09753
rclavicle 2.18663e-015 8.54774e-015
rhumerus -39.0193 6.25357 -89.6435
rradius 40.6009
rwrist -23.1663
rhand -21.1602 -1.41709
rfingers 7.12502
rthumb 5.21962 -31.3328
lclavicle 2.18663e-015 8.54774e-015
lhumerus -26.5127 -11.743 95.304
lradius 31.7204
lwrist 4.91029
lhand -19.027 20.4234
lfingers 7.12502
lthumb 7.27907 50.2782
rfemur -27.5693 10.2807 18.4702
rtibia 40.9429
rfoot -23.3495 -20.7135
rtoes -23.7329
lfemur 5.06799 -17.6815 -29.763
ltibia 14.872
lfoot -21.7195 20.471
ltoes -5.64803
491
root 47.5163 15.3396 0.379381 804.597 268.477 635.165
lowerback 7.62673 0.814909 -5.38229
upperback 4.97384 0.595668 -0.221423
thorax 0.825126 0.109952 2.74974
lowerneck -13.0852 4.35483 8.22158
upperneck 14.2949 5.40032 -7.01551
head 6.93689 2.43548 -3.08322
rclavicle -2.13694e-015 -1.19271e-014
rhumerus -38.9306 6.07603 -89.3271
rradius 40.4166
rwrist -23.0048
rhand -20.6193 -1.11602
rfingers 7.12502
rthumb 5.74193 -31.0182
lclavicle -2.13694e-015 -1.19271e-014
lhumerus -26.4289 -14.9366 96.3683
lradius 33.3736
lwrist 8.18183
lhand -13.1772 25.8767
lfingers 7.12502
lthumb 12.9224 55.4565
rfemur -28.1438 11.2574 17.9772
rtibia 40.1179
rfoot -23.1829 -20.4236
rtoes -22.909
lfemur 6.4329 -17.5783 -30.0184
ltibia 13.2952
lfoot -21.1823 20.429
ltoes -5.76958
492
root 47.3914 15.3363 0.382682 811.395 268.561 628.202
lowerback 7.67535 0.85474 -5.27494
upperback 5.04631 0.651933 -0.12882
thorax 0.868281 0.135686 2.78134
lowerneck -13.209 4.27298 8.17516
upperneck 14.3305 5.27983 -6.94927
head 6.9569 2.37866 -3.06534
rclavicle 0 1.0138e-014
rhumerus -38.8439 5.88832 -88.9908
rradius 40.1937
rwrist -22.821
rhand -18.8915 0.0563573
rfingers 7.12502
rthumb 7.40993 -29.7939
lclavicle 0 1.0138e-014
lhumerus -26.2321 -17.5342 97.135
lradius 34.8268
lwrist 11.1144
lhand -11.2684 28.1212
lfingers 7.12502
lthumb 14.762 57.5755
rfemur -28.5298 12.1474 17.6937
rtibia 39.3472
rfoot -23.2664 -20.3484
rtoes -21.5692
lfemur 8.10404 -17.6273 -30.1834
ltibia 11.4928
lfoot -20.6569 20.5211
ltoes -5.8663
493
root 47.2623 15.3309 0.384027 825.025 268.494 614.422
lowerback 7.69269 0.837716 -5.26905
upperback 5.11459 0.628899 -0.0391547
thorax 0.931065 0.119279 2.87259
lowerneck -13.2144 4.19774 8.21322
upperneck 14.2674 5.1717 -6.97511
head 6.93047 2.3272 -3.09129
rclavicle -3.05631e-015 -3.18055e-015
rhumerus -38.6944 5.64895 -88.6226
rradius 39.7947
rwrist -22.5118
rhand -19.9631 -0.618928
rfingers 7.12502
rthumb 6.37541 -30.503
lclavicle -3.05631e-015 -3.18055e-015
lhumerus -25.9321 -19.707 97.7091
lradius 36.1307
lwrist 13.2615
lhand -11.4704 29.0439
lfingers 7.12502
lthumb 14.5674 58.5124
rfemur -28.884 12.7894 17.3088
rtibia 38.6309
rfoot -23.4722 -20.5334
rtoes -20.9902
lfemur 9.85139 -17.4215 -30.3583
ltibia 9.4852
lfoot -19.9751 20.2012
ltoes -6.58304
494
root 47.1277 15.321 0.384179 837.181 268.204 602.164
lowerback 7.6758 0.767895 -5.35598
upperback 5.14846 0.532678 -0.00256026
thorax 0.983931 0.0663297 2.96615
lowerneck -13.1179 4.17613 8.27767
upperneck 14.1308 5.13557 -6.99763
head 6.86922 2.31418 -3.11356
rclavicle -1.59028e-015 -9.83984e-015
rhumerus -38.4999 5.36002 -88.2579
rradius 39.3087
rwrist -22.049
rhand -18.6397 0.677906
rfingers 7.12502
rthumb 7.65289 -29.1636
lclavicle -1.59028e-015 -9.83984e-015
lhumerus -25.5847 -21.4481 98.0788
lradius 37.4226
lwrist 15.1031
lhand -11.7627 31.5467
lfingers 7.12502
lthumb 14.2857 61.0353
rfemur -29.2966 13.1144 16.8224
rtibia 37.9997
rfoot -23.6395 -20.9745
rtoes -21.3288
lfemur 11.8889 -17.288 -30.6308
ltibia 6.87336
lfoot -18.9562 19.8588
ltoes -7.5642
495
root 46.9866 15.3083 0.382134 844.907 267.928 594.336
lowerback 7.65901 0.729866 -5.41409
upperback 5.14673 0.481034 0.0457658
thorax 0.995916 0.0386466 3.05253
lowerneck -13.013 4.12531 8.26972
upperneck 14.1069 5.05701 -6.89356
head 6.83403 2.28687 -3.08768
rclavicle 0 -1.74931e-014
rhumerus -38.3699 5.03439 -87.8929
rradius 38.8331
rwrist -21.8472
rhand -18.8416 0.499519
rfingers 7.12502
rthumb 7.45806 -29.349
lclavicle 0 -1.74931e-014
lhumerus -25.2171 -22.9516 98.368
lradius 38.5125
lwrist 16.3962
lhand -12.0063 33.8201
lfingers 7.12502
lthumb 14.0509 63.3252
rfemur -29.6821 13.3469 16.4241
rtibia 37.4757
rfoot -23.7513 -21.4046
rtoes -20.7687
lfemur 15.2279 -17.0901 -30.8163
ltibia 1.84919
lfoot -16.7079 19.4088
ltoes -8.37319
496
root 46.8366 15.2931 0.38037 850.627 267.733 588.522
lowerback 7.59041 0.724828 -5.38035
upperback 5.12665 0.482986 0.123445
thorax 1.01232 0.0404953 3.11431
lowerneck -12.9276 4.03939 8.2293
upperneck 14.1799 4.93238 -6.75305
head 6.82805 2.2377 -3.04969
rclavicle 6.43565e-015 2.21645e-014
rhumerus -38.3461 4.62868 -87.4763
rradius 38.3686
rwrist -21.7079
rhand -18.8791 0.664444
rfingers 7.12502
rthumb 7.42182 -29.1854
lclavicle 6.43565e-015 2.21645e-014
lhumerus -24.7974 -24.1706 98.5999
lradius 39.4891
lwrist 17.3446
lhand -11.9419 35.8501
lfingers 7.12502
lthumb 14.1129 65.3508
rfemur -29.9897 13.5508 16.1346
rtibia 37.0327
rfoot -23.8964 -21.7461
rtoes -19.9948
lfemur 16.9139 -16.8207 -30.913
ltibia -6.20208e-014
lfoot -16.0558 18.9706
ltoes -9.05085
497
root 46.6793 15.2747 0.380948 855.911 267.471 583.195
lowerback 7.43137 0.659866 -5.28293
upperback 5.12153 0.415055 0.172569
thorax 1.10088 0.00722162 3.11562
lowerneck -12.8567 3.97478 8.24717
upperneck 14.1584 4.83674 -6.70326
head 6.80046 2.19827 -3.0471
rclavicle 1.61513e-015 -1.63997e-015
rhumerus -38.2481 4.13829 -86.9905
rradius 37.8561
rwrist -21.1774
rhand -18.4909 0.686563
rfingers 7.12502
rthumb 7.79655 -29.1497
lclavicle 1.61513e-015 -1.63997e-015
lhumerus -24.326 -25.0434 98.6996
lradius 40.3337
lwrist 17.8629
lhand -11.6502 37.5098
lfingers 7.12502
lthumb 14.394 66.9907
rfemur -30.2429 13.4717 15.8622
rtibia 36.6478
rfoot -23.9918 -22.0748
rtoes -20.2093
lfemur 17.602 -16.606 -31.0328
ltibia 7.15625e-014
lfoot -16.3882 18.5866
ltoes -9.28553
498
root 46.5161 15.2524 0.372373 861.394 267.323 577.508
lowerback 7.387 0.625028 -5.18679
upperback 5.19585 0.377125 0.283559
thorax 1.20577 -0.0160163 3.17931
lowerneck -12.8021 3.90426 8.294
upperneck 14.033 4.72688 -6.67343
head 6.74251 2.15217 -3.05636
rclavicle -1.54679e-015 -9.0944e-015
rhumerus -38.0477 3.68938 -86.5265
rradius 37.3236
rwrist -20.809
rhand -18.2345 0.566273
rfingers 7.12502
rthumb 8.04397 -29.2606
lclavicle -1.54679e-015 -9.0944e-015
lhumerus -23.8224 -25.8176 98.7376
lradius 41.062
lwrist 18.2731
lhand -11.4019 39.2319
lfingers 7.12502
lthumb 14.6333 68.6956
rfemur -30.2182 13.5007 15.8479
rtibia 36.35
rfoot -24.1328 -22.4801
rtoes -20.6382
lfemur 18.4969 -16.3124 -31.0106
ltibia -1.59028e-014
lfoot -16.797 18.2575
ltoes -9.72382
499
root 46.3456 15.2354 0.359979 868.266 267.268 570.493
lowerback 7.25728 0.609444 -5.02929
upperback 5.24346 0.374012 0.467007
thorax 1.32646 -0.0202336 3.28166
lowerneck -12.8087 3.80427 8.2993
upperneck 14.0417 4.58621 -6.65446
head 6.73489 2.08632 -3.06559
rclavicle -4.71648e-015 -1.80273e-014
rhumerus -37.9226 3.37639 -86.111
rradius 36.8821
rwrist -20.767
rhand -18.2781 0.403232
rfingers 7.12502
rthumb 8.0019 -29.4253
lclavicle -4.71648e-015 -1.80273e-014
lhumerus -23.2135 -26.0969 98.6823
lradius 41.6034
lwrist 18.2911
lhand -10.5659 42.8614
lfingers 7.12502
lthumb 15.4387 72.2648
rfemur -30.165 13.5306 16.053
rtibia 36.1536
rfoot -24.1245 -22.8346
rtoes -20.5169
lfemur 19.3403 -15.9919 -30.787
ltibia -3.81667e-014
lfoot -17.1946 18.0525
ltoes -11.217
500
root 46.1694 15.2179 0.346292 871.741 267.084 566.875
lowerback 7.1524 0.577088 -5.00005
upperback 5.26425 0.339539 0.577034
thorax 1.40906 -0.0406258 3.38179
lowerneck -12.7751 3.75292 8.2474
upperneck 14.0265 4.50487 -6.51159
head 6.71329 2.05702 -3.01901
rclavicle -3.75206e-015 -5.76476e-015
rhumerus -37.8647 3.15195 -85.767
rradius 36.4972
rwrist -20.6896
rhand -18.3396 0.242996
rfingers 7.12502
rthumb 7.94254 -29.5878
lclavicle -3.75206e-015 -5.76476e-015
lhumerus -22.6369 -25.9436 98.5577
lradius 42.0239
lwrist 17.6093
lhand -10.5659 43.5211
lfingers 7.12502
lthumb 15.4386 72.9245
rfemur -30.023 13.2204 16.1809
rtibia 36.0979
rfoot -23.903 -22.8552
rtoes -19.3712
lfemur 20.2041 -15.6841 -30.7377
ltibia -4.77083e-014
lfoot -17.4923 17.8704
ltoes -12.6054
